Coordinates
version=1
nRows=6
nColumns=63
inDegrees=yes

Units are S.I. units (second, meters, Newtons, ...)
If the header above contains a line with 'inDegrees', this indicates whether rotational values are in degrees (yes) or radians (no).

endheader
time	pelvis_tilt	pelvis_list	pelvis_rotation	pelvis_tx	pelvis_ty	pelvis_tz	hip_flexion_r	hip_adduction_r	hip_rotation_r	knee_angle_r	knee_angle_r_beta	ankle_angle_r	subtalar_angle_r	mtp_angle_r	hip_flexion_l	hip_adduction_l	hip_rotation_l	knee_angle_l	knee_angle_l_beta	ankle_angle_l	subtalar_angle_l	mtp_angle_l	L5_S1_Flex_Ext	L5_S1_Lat_Bending	L5_S1_axial_rotation	L4_L5_Flex_Ext	L4_L5_Lat_Bending	L4_L5_axial_rotation	L3_L4_Flex_Ext	L3_L4_Lat_Bending	L3_L4_axial_rotation	L2_L3_Flex_Ext	L2_L3_Lat_Bending	L2_L3_axial_rotation	L1_L2_Flex_Ext	L1_L2_Lat_Bending	L1_L2_axial_rotation	L1_T12_Flex_Ext	L1_T12_Lat_Bending	L1_T12_axial_rotation	Abs_r3	Abs_r2	Abs_r1	Abs_t1	Abs_t2	neck_flexion	neck_bending	neck_rotation	arm_flex_r	arm_add_r	arm_rot_r	elbow_flex_r	pro_sup_r	wrist_flex_r	wrist_dev_r	arm_flex_l	arm_add_l	arm_rot_l	elbow_flex_l	pro_sup_l	wrist_flex_l	wrist_dev_l
4.644068	-0.682300	-6.039979	102.672161	0.429770	0.781400	1.066349	8.773950	-2.030257	-22.110295	15.468879	0.269983	31.899888	12.681445	0.000000	11.991063	-0.098980	-3.295685	15.755760	0.274990	32.024354	15.194939	0.000000	0.141145	-0.155908	0.443848	0.262120	-0.207357	0.471589	0.231886	-0.379074	0.471589	0.161314	-0.379074	0.388367	0.131067	-0.317927	0.360627	0.080650	-0.241501	0.332886	1.008181	-1.763658	2.468551	0.000000	0.000000	26.976601	-1.756965	-14.697911	8.640187	-7.168993	40.556841	36.186280	75.639983	13.512614	10.362255	22.260228	-5.088512	88.563437	36.741009	51.003576	-7.236852	-8.187663
4.661017	-0.712667	-6.126646	102.437658	0.430264	0.781344	1.066722	8.939003	-2.068095	-21.939959	15.615958	0.272550	31.976700	12.665646	0.000000	12.103289	-0.106273	-3.732385	15.736741	0.274658	32.112814	15.334231	0.000000	0.141286	-0.161039	0.487202	0.262382	-0.214182	0.517652	0.232119	-0.391550	0.517652	0.161476	-0.391550	0.426302	0.131198	-0.328390	0.395852	0.080731	-0.249449	0.365401	1.009191	-1.821703	2.709671	0.000000	0.000000	27.022100	-1.763407	-14.717494	8.639216	-7.159365	40.291182	36.289798	75.562186	13.264116	10.575257	22.316076	-5.147535	88.619604	36.763946	51.060346	-6.923961	-7.726471
4.677966	-0.742333	-6.193117	102.252532	0.430681	0.781327	1.067042	9.043828	-2.093183	-21.807088	15.702440	0.274059	32.042197	12.622870	0.000000	12.192395	-0.100184	-4.059550	15.718634	0.274342	32.161558	15.384917	0.000000	0.142034	-0.166246	0.521132	0.263771	-0.221107	0.553703	0.233348	-0.404209	0.553703	0.162331	-0.404209	0.455990	0.131893	-0.339008	0.423420	0.081158	-0.257514	0.390849	1.014535	-1.880602	2.898380	0.000000	0.000000	27.051563	-1.700294	-14.655018	8.665150	-7.142440	40.171404	36.341881	75.217179	12.951036	10.847222	22.366556	-5.185975	88.735891	36.733928	51.171601	-6.526603	-7.154220
4.694915	-0.776870	-6.235779	102.109927	0.431029	0.781342	1.067298	9.084593	-2.120343	-21.807261	15.739041	0.274698	32.115819	12.692217	0.000000	12.255096	-0.083558	-4.326419	15.708368	0.274163	32.190378	15.416935	0.000000	0.142951	-0.172214	0.545015	0.265474	-0.229044	0.579079	0.234854	-0.418721	0.579079	0.163379	-0.418721	0.476888	0.132744	-0.351178	0.442825	0.081682	-0.266759	0.408762	1.021084	-1.948117	3.031212	0.000000	0.000000	27.063060	-1.588680	-14.524809	8.720045	-7.111450	40.169039	36.326414	74.986948	12.642806	10.995775	22.418957	-5.227161	88.933109	36.711415	51.305289	-6.217132	-6.537439
4.711864	-0.811915	-6.267577	102.008076	0.431318	0.781374	1.067509	9.083433	-2.149401	-21.905235	15.731435	0.274565	32.187935	12.839775	0.000000	12.312599	-0.064097	-4.569755	15.724244	0.274440	32.199533	15.461668	0.000000	0.146043	-0.178844	0.559646	0.271217	-0.237863	0.594624	0.239934	-0.434842	0.594624	0.166913	-0.434842	0.489691	0.135616	-0.364699	0.454713	0.083449	-0.277030	0.419735	1.043171	-2.023121	3.112586	0.000000	0.000000	27.063608	-1.465106	-14.363150	8.804948	-7.068708	40.318366	36.252892	74.675069	12.298517	11.114128	22.461768	-5.247202	89.171082	36.629288	51.551729	-5.952591	-6.047570
4.728814	-0.851906	-6.276581	101.930299	0.431571	0.781428	1.067650	9.033856	-2.166057	-21.962539	15.672732	0.273541	32.238148	12.922815	0.000000	12.336560	-0.032760	-4.726548	15.734068	0.274611	32.178780	15.424333	0.000000	0.149055	-0.186554	0.571959	0.276810	-0.248117	0.607707	0.244883	-0.453588	0.607707	0.170355	-0.453588	0.500464	0.138413	-0.380421	0.464717	0.085170	-0.288972	0.428969	1.064685	-2.110339	3.181066	0.000000	0.000000	27.063238	-1.339792	-14.210499	8.883413	-7.012911	40.476902	36.152775	74.486392	11.981383	11.157827	22.527757	-5.262594	89.485052	36.569926	51.774708	-5.794049	-5.593683
